# xmcd
#
# Track frame offsets: 
#        150
#        14235
#        27947
#        41487
#        55152
#        68910
#        83185
#        97810
#        111695
#        125632
#        139075
#        153525
#        166787
#        181140
#        194632
#        208245
#        221927
#        235882
#        249077
#        263317
#        277422
#        290240
#        302672
#        316070
#        329275
#        342597
#
# Disc length: 4743 seconds
#
# Revision: 1
# Processed by: cddbd v1.5.2PL0 Copyright (c) Steve Scherf et al.
# Submitted via: ExactAudioCopyFreeDBPlugin 1.0
#
DISCID=9312851a
DTITLE=Uncle Dave Macon - Keep my skillet good and greasy [CD 05)
DYEAR=2004
DGENRE=Country
TTITLE0=Molly Married A Travelling Man
TTITLE1=When Reuben Comes To Town
TTITLE2=Got No Silver Nor Gold Blues
TTITLE3=Heartaching Blues
TTITLE4=Roe Rire Poor Gal
TTITLE5=You've Been A Friend To Me
TTITLE6=Backwater Blues
TTITLE7=More Like Your Dad Every Day
TTITLE8=I'll Never Go There Any More (The Bowery)
TTITLE9=Jesus, Lover Of My Soul
TTITLE10=From Earth To Heaven
TTITLE11=The Coon That Had The Razor
TTITLE12=Buddy Won't You Roll Down The Line
TTITLE13=Worthy Of Estimation
TTITLE14=I'm The Child To Fight
TTITLE15=Over The Road I'm Bound To Go
TTITLE16=The New Ford Car
TTITLE17=The Gal That Got Stuck On Everything She Said
TTITLE18=Comin' Round The Mountain
TTITLE19=Governor Al Smith
TTITLE20=Darling Zelma Lee
TTITLE21=Put Me In My Little Bed
TTITLE22=Life And Death Of Jesse James
TTITLE23=Man That Rode That Mule Around The World
TTITLE24=Tennessee Jubilee
TTITLE25=New Coon In Town
EXTD=YEAR: 1930
EXTT0=
EXTT1=
EXTT2=
EXTT3=
EXTT4=
EXTT5=
EXTT6=
EXTT7=
EXTT8=
EXTT9=
EXTT10=
EXTT11=
EXTT12=
EXTT13=
EXTT14=
EXTT15=
EXTT16=
EXTT17=
EXTT18=
EXTT19=
EXTT20=
EXTT21=
EXTT22=
EXTT23=
EXTT24=
EXTT25=
PLAYORDER=
